<svg width="270" height="34" viewBox="0 0 270 34" fill="none" xmlns="http://www.w3.org/2000/svg">
<path d="M0.0227273 24V0.727272H9.34091C11.053 0.727272 12.4811 0.98106 13.625 1.48864C14.7689 1.99621 15.6288 2.70076 16.2045 3.60227C16.7803 4.49621 17.0682 5.52652 17.0682 6.69318C17.0682 7.60227 16.8864 8.40152 16.5227 9.09091C16.1591 9.77273 15.6591 10.3333 15.0227 10.7727C14.3939 11.2045 13.6742 11.5114 12.8636 11.6932V11.9205C13.75 11.9583 14.5795 12.2083 15.3523 12.6705C16.1326 13.1326 16.7652 13.7803 17.25 14.6136C17.7348 15.4394 17.9773 16.4242 17.9773 17.5682C17.9773 18.803 17.6705 19.9053 17.0568 20.875C16.4508 21.8371 15.553 22.5985 14.3636 23.1591C13.1742 23.7197 11.7083 24 9.96591 24H0.0227273ZM4.94318 19.9773H8.95455C10.3258 19.9773 11.3258 19.7159 11.9545 19.1932C12.5833 18.6629 12.8977 17.9583 12.8977 17.0795C12.8977 16.4356 12.7424 15.8674 12.4318 15.375C12.1212 14.8826 11.678 14.4962 11.1023 14.2159C10.5341 13.9356 9.85606 13.7955 9.06818 13.7955H4.94318V19.9773ZM4.94318 10.4659H8.59091C9.26515 10.4659 9.86364 10.3485 10.3864 10.1136C10.9167 9.87121 11.3333 9.5303 11.6364 9.09091C11.947 8.65152 12.1023 8.125 12.1023 7.51136C12.1023 6.67045 11.803 5.99242 11.2045 5.47727C10.6136 4.96212 9.77273 4.70454 8.68182 4.70454H4.94318V10.4659ZM26.7394 0.727272V24H21.819V0.727272H26.7394ZM44.0527 7.42045C43.9618 6.50379 43.5717 5.79167 42.8823 5.28409C42.1929 4.77651 41.2573 4.52273 40.0755 4.52273C39.2724 4.52273 38.5944 4.63636 38.0414 4.86364C37.4883 5.08333 37.0641 5.39015 36.7686 5.78409C36.4808 6.17803 36.3368 6.625 36.3368 7.125C36.3217 7.54167 36.4088 7.9053 36.5982 8.21591C36.7952 8.52652 37.0641 8.79545 37.405 9.02273C37.7459 9.24242 38.1398 9.43561 38.5868 9.60227C39.0338 9.76136 39.5111 9.89773 40.0186 10.0114L42.1095 10.5114C43.1247 10.7386 44.0565 11.0417 44.905 11.4205C45.7535 11.7992 46.4883 12.2652 47.1095 12.8182C47.7308 13.3712 48.2118 14.0227 48.5527 14.7727C48.9012 15.5227 49.0792 16.3826 49.0868 17.3523C49.0792 18.7765 48.7156 20.0114 47.9959 21.0568C47.2838 22.0947 46.2535 22.9015 44.905 23.4773C43.5641 24.0455 41.9467 24.3295 40.0527 24.3295C38.1739 24.3295 36.5376 24.0417 35.1436 23.4659C33.7573 22.8902 32.6739 22.0379 31.8936 20.9091C31.1209 19.7727 30.7156 18.3674 30.6777 16.6932H35.4391C35.4921 17.4735 35.7156 18.125 36.1095 18.6477C36.5111 19.1629 37.0452 19.553 37.7118 19.8182C38.3861 20.0758 39.1474 20.2045 39.9959 20.2045C40.8292 20.2045 41.5527 20.0833 42.1664 19.8409C42.7876 19.5985 43.2686 19.2614 43.6095 18.8295C43.9505 18.3977 44.1209 17.9015 44.1209 17.3409C44.1209 16.8182 43.9656 16.3788 43.655 16.0227C43.352 15.6667 42.905 15.3636 42.3141 15.1136C41.7308 14.8636 41.0148 14.6364 40.1664 14.4318L37.6323 13.7955C35.6702 13.3182 34.1209 12.572 32.9845 11.5568C31.8482 10.5417 31.2838 9.17424 31.2914 7.45454C31.2838 6.04545 31.6588 4.81439 32.4164 3.76136C33.1815 2.70833 34.2308 1.88636 35.5641 1.29545C36.8974 0.704545 38.4126 0.40909 40.1095 0.40909C41.8368 0.40909 43.3444 0.704545 44.6323 1.29545C45.9277 1.88636 46.9353 2.70833 47.655 3.76136C48.3747 4.81439 48.7459 6.03409 48.7686 7.42045H44.0527ZM53.0365 24V0.727272H57.9569V10.3295H67.9456V0.727272H72.8547V24H67.9456V14.3864H57.9569V24H53.0365ZM81.5628 24H76.2901L84.3242 0.727272H90.6651L98.6878 24H93.4151L87.5856 6.04545H87.4037L81.5628 24ZM81.2333 14.8523H93.6878V18.6932H81.2333V14.8523ZM102.129 24V0.727272H107.049V19.9432H117.027V24H102.129ZM129.767 24V0.727272H132.585V12.2727H132.858L143.312 0.727272H146.994L137.221 11.2273L146.994 24H143.585L135.494 13.1818L132.585 16.4545V24H129.767ZM151.282 24V0.727272H154.1V11.0909H166.509V0.727272H169.327V24H166.509V13.5909H154.1V24H151.282ZM176.564 24H173.609L182.155 0.727272H185.064L193.609 24H190.655L183.7 4.40909H183.519L176.564 24ZM177.655 14.9091H189.564V17.4091H177.655V14.9091ZM193.883 3.22727V0.727272H211.337V3.22727H204.019V24H201.201V3.22727H193.883ZM216.327 24V0.727272H224.191C226.009 0.727272 227.501 1.03788 228.668 1.65909C229.835 2.27273 230.698 3.11742 231.259 4.19318C231.819 5.26894 232.1 6.49242 232.1 7.86364C232.1 9.23485 231.819 10.4508 231.259 11.5114C230.698 12.572 229.838 13.4053 228.679 14.0114C227.52 14.6098 226.039 14.9091 224.236 14.9091H217.872V12.3636H224.145C225.388 12.3636 226.388 12.1818 227.145 11.8182C227.91 11.4545 228.463 10.9394 228.804 10.2727C229.153 9.59848 229.327 8.79545 229.327 7.86364C229.327 6.93182 229.153 6.11742 228.804 5.42045C228.456 4.72348 227.899 4.18561 227.134 3.80682C226.369 3.42045 225.357 3.22727 224.1 3.22727H219.145V24H216.327ZM227.281 13.5455L233.009 24H229.736L224.1 13.5455H227.281ZM240.254 0.727272V24H237.436V0.727272H240.254ZM248.135 24.1818C247.575 24.1818 247.094 23.9811 246.692 23.5795C246.291 23.178 246.09 22.697 246.09 22.1364C246.09 21.5758 246.291 21.0947 246.692 20.6932C247.094 20.2917 247.575 20.0909 248.135 20.0909C248.696 20.0909 249.177 20.2917 249.579 20.6932C249.98 21.0947 250.181 21.5758 250.181 22.1364C250.181 22.5076 250.086 22.8485 249.897 23.1591C249.715 23.4697 249.469 23.7197 249.158 23.9091C248.855 24.0909 248.514 24.1818 248.135 24.1818Z" fill="white"/>
</svg>
